<?xml version="1.0" standalone="no"?>
<svg xmlns="http://www.w3.org/2000/svg" width="2000" height="2000" viewBox="0 0 2000 2000"><defs><clipPath id="clip-path-dot-color"><rect x="107" y="787" width="85" height="85" transform="rotate(0,149.5,829.5)"/><rect x="107" y="957" width="85" height="85" transform="rotate(0,149.5,999.5)"/><rect x="107" y="1042" width="85" height="85" transform="rotate(0,149.5,1084.5)"/><rect x="192" y="957" width="85" height="85" transform="rotate(0,234.5,999.5)"/><rect x="277" y="787" width="85" height="85" transform="rotate(0,319.5,829.5)"/><rect x="277" y="957" width="85" height="85" transform="rotate(0,319.5,999.5)"/><rect x="277" y="1042" width="85" height="85" transform="rotate(0,319.5,1084.5)"/><rect x="277" y="1127" width="85" height="85" transform="rotate(0,319.5,1169.5)"/><rect x="362" y="787" width="85" height="85" transform="rotate(0,404.5,829.5)"/><rect x="362" y="872" width="85" height="85" transform="rotate(0,404.5,914.5)"/><rect x="447" y="872" width="85" height="85" transform="rotate(0,489.5,914.5)"/><rect x="447" y="1042" width="85" height="85" transform="rotate(0,489.5,1084.5)"/><rect x="532" y="787" width="85" height="85" transform="rotate(0,574.5,829.5)"/><rect x="532" y="957" width="85" height="85" transform="rotate(0,574.5,999.5)"/><rect x="532" y="1127" width="85" height="85" transform="rotate(0,574.5,1169.5)"/><rect x="617" y="787" width="85" height="85" transform="rotate(0,659.5,829.5)"/><rect x="617" y="957" width="85" height="85" transform="rotate(0,659.5,999.5)"/><rect x="617" y="1127" width="85" height="85" transform="rotate(0,659.5,1169.5)"/><rect x="702" y="787" width="85" height="85" transform="rotate(0,744.5,829.5)"/><rect x="702" y="872" width="85" height="85" transform="rotate(0,744.5,914.5)"/><rect x="702" y="1042" width="85" height="85" transform="rotate(0,744.5,1084.5)"/><rect x="787" y="192" width="85" height="85" transform="rotate(0,829.5,234.5)"/><rect x="787" y="362" width="85" height="85" transform="rotate(0,829.5,404.5)"/><rect x="787" y="532" width="85" height="85" transform="rotate(0,829.5,574.5)"/><rect x="787" y="617" width="85" height="85" transform="rotate(0,829.5,659.5)"/><rect x="787" y="702" width="85" height="85" transform="rotate(0,829.5,744.5)"/><rect x="787" y="787" width="85" height="85" transform="rotate(0,829.5,829.5)"/><rect x="787" y="872" width="85" height="85" transform="rotate(0,829.5,914.5)"/><rect x="787" y="1042" width="85" height="85" transform="rotate(0,829.5,1084.5)"/><rect x="787" y="1127" width="85" height="85" transform="rotate(0,829.5,1169.5)"/><rect x="787" y="1212" width="85" height="85" transform="rotate(0,829.5,1254.5)"/><rect x="787" y="1297" width="85" height="85" transform="rotate(0,829.5,1339.5)"/><rect x="787" y="1382" width="85" height="85" transform="rotate(0,829.5,1424.5)"/><rect x="787" y="1552" width="85" height="85" transform="rotate(0,829.5,1594.5)"/><rect x="787" y="1637" width="85" height="85" transform="rotate(0,829.5,1679.5)"/><rect x="787" y="1807" width="85" height="85" transform="rotate(0,829.5,1849.5)"/><rect x="872" y="107" width="85" height="85" transform="rotate(0,914.5,149.5)"/><rect x="872" y="277" width="85" height="85" transform="rotate(0,914.5,319.5)"/><rect x="872" y="362" width="85" height="85" transform="rotate(0,914.5,404.5)"/><rect x="872" y="447" width="85" height="85" transform="rotate(0,914.5,489.5)"/><rect x="872" y="957" width="85" height="85" transform="rotate(0,914.5,999.5)"/><rect x="872" y="1042" width="85" height="85" transform="rotate(0,914.5,1084.5)"/><rect x="872" y="1297" width="85" height="85" transform="rotate(0,914.5,1339.5)"/><rect x="872" y="1552" width="85" height="85" transform="rotate(0,914.5,1594.5)"/><rect x="872" y="1637" width="85" height="85" transform="rotate(0,914.5,1679.5)"/><rect x="872" y="1722" width="85" height="85" transform="rotate(0,914.5,1764.5)"/><rect x="872" y="1807" width="85" height="85" transform="rotate(0,914.5,1849.5)"/><rect x="957" y="107" width="85" height="85" transform="rotate(0,999.5,149.5)"/><rect x="957" y="617" width="85" height="85" transform="rotate(0,999.5,659.5)"/><rect x="957" y="702" width="85" height="85" transform="rotate(0,999.5,744.5)"/><rect x="957" y="872" width="85" height="85" transform="rotate(0,999.5,914.5)"/><rect x="957" y="1042" width="85" height="85" transform="rotate(0,999.5,1084.5)"/><rect x="957" y="1212" width="85" height="85" transform="rotate(0,999.5,1254.5)"/><rect x="957" y="1552" width="85" height="85" transform="rotate(0,999.5,1594.5)"/><rect x="957" y="1637" width="85" height="85" transform="rotate(0,999.5,1679.5)"/><rect x="957" y="1807" width="85" height="85" transform="rotate(0,999.5,1849.5)"/><rect x="1042" y="192" width="85" height="85" transform="rotate(0,1084.5,234.5)"/><rect x="1042" y="277" width="85" height="85" transform="rotate(0,1084.5,319.5)"/><rect x="1042" y="362" width="85" height="85" transform="rotate(0,1084.5,404.5)"/><rect x="1042" y="702" width="85" height="85" transform="rotate(0,1084.5,744.5)"/><rect x="1042" y="872" width="85" height="85" transform="rotate(0,1084.5,914.5)"/><rect x="1042" y="957" width="85" height="85" transform="rotate(0,1084.5,999.5)"/><rect x="1042" y="1552" width="85" height="85" transform="rotate(0,1084.5,1594.5)"/><rect x="1042" y="1722" width="85" height="85" transform="rotate(0,1084.5,1764.5)"/><rect x="1042" y="1807" width="85" height="85" transform="rotate(0,1084.5,1849.5)"/><rect x="1127" y="277" width="85" height="85" transform="rotate(0,1169.5,319.5)"/><rect x="1127" y="362" width="85" height="85" transform="rotate(0,1169.5,404.5)"/><rect x="1127" y="447" width="85" height="85" transform="rotate(0,1169.5,489.5)"/><rect x="1127" y="617" width="85" height="85" transform="rotate(0,1169.5,659.5)"/><rect x="1127" y="787" width="85" height="85" transform="rotate(0,1169.5,829.5)"/><rect x="1127" y="1127" width="85" height="85" transform="rotate(0,1169.5,1169.5)"/><rect x="1127" y="1297" width="85" height="85" transform="rotate(0,1169.5,1339.5)"/><rect x="1127" y="1467" width="85" height="85" transform="rotate(0,1169.5,1509.5)"/><rect x="1127" y="1552" width="85" height="85" transform="rotate(0,1169.5,1594.5)"/><rect x="1127" y="1807" width="85" height="85" transform="rotate(0,1169.5,1849.5)"/><rect x="1212" y="787" width="85" height="85" transform="rotate(0,1254.5,829.5)"/><rect x="1212" y="872" width="85" height="85" transform="rotate(0,1254.5,914.5)"/><rect x="1212" y="1042" width="85" height="85" transform="rotate(0,1254.5,1084.5)"/><rect x="1212" y="1382" width="85" height="85" transform="rotate(0,1254.5,1424.5)"/><rect x="1212" y="1467" width="85" height="85" transform="rotate(0,1254.5,1509.5)"/><rect x="1212" y="1552" width="85" height="85" transform="rotate(0,1254.5,1594.5)"/><rect x="1212" y="1637" width="85" height="85" transform="rotate(0,1254.5,1679.5)"/><rect x="1212" y="1722" width="85" height="85" transform="rotate(0,1254.5,1764.5)"/><rect x="1212" y="1807" width="85" height="85" transform="rotate(0,1254.5,1849.5)"/><rect x="1297" y="787" width="85" height="85" transform="rotate(0,1339.5,829.5)"/><rect x="1297" y="1127" width="85" height="85" transform="rotate(0,1339.5,1169.5)"/><rect x="1297" y="1212" width="85" height="85" transform="rotate(0,1339.5,1254.5)"/><rect x="1297" y="1382" width="85" height="85" transform="rotate(0,1339.5,1424.5)"/><rect x="1297" y="1552" width="85" height="85" transform="rotate(0,1339.5,1594.5)"/><rect x="1297" y="1637" width="85" height="85" transform="rotate(0,1339.5,1679.5)"/><rect x="1297" y="1722" width="85" height="85" transform="rotate(0,1339.5,1764.5)"/><rect x="1382" y="787" width="85" height="85" transform="rotate(0,1424.5,829.5)"/><rect x="1382" y="872" width="85" height="85" transform="rotate(0,1424.5,914.5)"/><rect x="1382" y="957" width="85" height="85" transform="rotate(0,1424.5,999.5)"/><rect x="1382" y="1042" width="85" height="85" transform="rotate(0,1424.5,1084.5)"/><rect x="1382" y="1127" width="85" height="85" transform="rotate(0,1424.5,1169.5)"/><rect x="1382" y="1212" width="85" height="85" transform="rotate(0,1424.5,1254.5)"/><rect x="1382" y="1382" width="85" height="85" transform="rotate(0,1424.5,1424.5)"/><rect x="1382" y="1467" width="85" height="85" transform="rotate(0,1424.5,1509.5)"/><rect x="1382" y="1552" width="85" height="85" transform="rotate(0,1424.5,1594.5)"/><rect x="1382" y="1807" width="85" height="85" transform="rotate(0,1424.5,1849.5)"/><rect x="1467" y="872" width="85" height="85" transform="rotate(0,1509.5,914.5)"/><rect x="1467" y="1297" width="85" height="85" transform="rotate(0,1509.5,1339.5)"/><rect x="1467" y="1382" width="85" height="85" transform="rotate(0,1509.5,1424.5)"/><rect x="1467" y="1467" width="85" height="85" transform="rotate(0,1509.5,1509.5)"/><rect x="1467" y="1637" width="85" height="85" transform="rotate(0,1509.5,1679.5)"/><rect x="1467" y="1722" width="85" height="85" transform="rotate(0,1509.5,1764.5)"/><rect x="1467" y="1807" width="85" height="85" transform="rotate(0,1509.5,1849.5)"/><rect x="1552" y="787" width="85" height="85" transform="rotate(0,1594.5,829.5)"/><rect x="1552" y="872" width="85" height="85" transform="rotate(0,1594.5,914.5)"/><rect x="1552" y="1042" width="85" height="85" transform="rotate(0,1594.5,1084.5)"/><rect x="1552" y="1552" width="85" height="85" transform="rotate(0,1594.5,1594.5)"/><rect x="1552" y="1637" width="85" height="85" transform="rotate(0,1594.5,1679.5)"/><rect x="1552" y="1722" width="85" height="85" transform="rotate(0,1594.5,1764.5)"/><rect x="1552" y="1807" width="85" height="85" transform="rotate(0,1594.5,1849.5)"/><rect x="1637" y="872" width="85" height="85" transform="rotate(0,1679.5,914.5)"/><rect x="1637" y="957" width="85" height="85" transform="rotate(0,1679.5,999.5)"/><rect x="1637" y="1127" width="85" height="85" transform="rotate(0,1679.5,1169.5)"/><rect x="1637" y="1467" width="85" height="85" transform="rotate(0,1679.5,1509.5)"/><rect x="1637" y="1807" width="85" height="85" transform="rotate(0,1679.5,1849.5)"/><rect x="1722" y="787" width="85" height="85" transform="rotate(0,1764.5,829.5)"/><rect x="1722" y="957" width="85" height="85" transform="rotate(0,1764.5,999.5)"/><rect x="1722" y="1212" width="85" height="85" transform="rotate(0,1764.5,1254.5)"/><rect x="1722" y="1297" width="85" height="85" transform="rotate(0,1764.5,1339.5)"/><rect x="1722" y="1467" width="85" height="85" transform="rotate(0,1764.5,1509.5)"/><rect x="1722" y="1637" width="85" height="85" transform="rotate(0,1764.5,1679.5)"/><rect x="1807" y="872" width="85" height="85" transform="rotate(0,1849.5,914.5)"/><rect x="1807" y="1042" width="85" height="85" transform="rotate(0,1849.5,1084.5)"/><rect x="1807" y="1127" width="85" height="85" transform="rotate(0,1849.5,1169.5)"/><rect x="1807" y="1467" width="85" height="85" transform="rotate(0,1849.5,1509.5)"/><rect x="1807" y="1552" width="85" height="85" transform="rotate(0,1849.5,1594.5)"/><rect x="1807" y="1637" width="85" height="85" transform="rotate(0,1849.5,1679.5)"/><rect x="1807" y="1722" width="85" height="85" transform="rotate(0,1849.5,1764.5)"/></clipPath><clipPath id="clip-path-corners-square-color-0-0"><rect x="107" y="107" width="85" height="85" transform="rotate(0,149.5,149.5)"/><rect x="107" y="192" width="85" height="85" transform="rotate(0,149.5,234.5)"/><rect x="107" y="277" width="85" height="85" transform="rotate(0,149.5,319.5)"/><rect x="107" y="362" width="85" height="85" transform="rotate(0,149.5,404.5)"/><rect x="107" y="447" width="85" height="85" transform="rotate(0,149.5,489.5)"/><rect x="107" y="532" width="85" height="85" transform="rotate(0,149.5,574.5)"/><rect x="107" y="617" width="85" height="85" transform="rotate(0,149.5,659.5)"/><rect x="192" y="107" width="85" height="85" transform="rotate(0,234.5,149.5)"/><rect x="192" y="617" width="85" height="85" transform="rotate(0,234.5,659.5)"/><rect x="277" y="107" width="85" height="85" transform="rotate(0,319.5,149.5)"/><rect x="277" y="617" width="85" height="85" transform="rotate(0,319.5,659.5)"/><rect x="362" y="107" width="85" height="85" transform="rotate(0,404.5,149.5)"/><rect x="362" y="617" width="85" height="85" transform="rotate(0,404.5,659.5)"/><rect x="447" y="107" width="85" height="85" transform="rotate(0,489.5,149.5)"/><rect x="447" y="617" width="85" height="85" transform="rotate(0,489.5,659.5)"/><rect x="532" y="107" width="85" height="85" transform="rotate(0,574.5,149.5)"/><rect x="532" y="617" width="85" height="85" transform="rotate(0,574.5,659.5)"/><rect x="617" y="107" width="85" height="85" transform="rotate(0,659.5,149.5)"/><rect x="617" y="192" width="85" height="85" transform="rotate(0,659.5,234.5)"/><rect x="617" y="277" width="85" height="85" transform="rotate(0,659.5,319.5)"/><rect x="617" y="362" width="85" height="85" transform="rotate(0,659.5,404.5)"/><rect x="617" y="447" width="85" height="85" transform="rotate(0,659.5,489.5)"/><rect x="617" y="532" width="85" height="85" transform="rotate(0,659.5,574.5)"/><rect x="617" y="617" width="85" height="85" transform="rotate(0,659.5,659.5)"/></clipPath><clipPath id="clip-path-corners-dot-color-0-0"><rect x="277" y="277" width="85" height="85" transform="rotate(0,319.5,319.5)"/><rect x="277" y="362" width="85" height="85" transform="rotate(0,319.5,404.5)"/><rect x="277" y="447" width="85" height="85" transform="rotate(0,319.5,489.5)"/><rect x="362" y="277" width="85" height="85" transform="rotate(0,404.5,319.5)"/><rect x="362" y="362" width="85" height="85" transform="rotate(0,404.5,404.5)"/><rect x="362" y="447" width="85" height="85" transform="rotate(0,404.5,489.5)"/><rect x="447" y="277" width="85" height="85" transform="rotate(0,489.5,319.5)"/><rect x="447" y="362" width="85" height="85" transform="rotate(0,489.5,404.5)"/><rect x="447" y="447" width="85" height="85" transform="rotate(0,489.5,489.5)"/></clipPath><clipPath id="clip-path-corners-square-color-1-0"><rect x="1297" y="107" width="85" height="85" transform="rotate(0,1339.5,149.5)"/><rect x="1297" y="192" width="85" height="85" transform="rotate(0,1339.5,234.5)"/><rect x="1297" y="277" width="85" height="85" transform="rotate(0,1339.5,319.5)"/><rect x="1297" y="362" width="85" height="85" transform="rotate(0,1339.5,404.5)"/><rect x="1297" y="447" width="85" height="85" transform="rotate(0,1339.5,489.5)"/><rect x="1297" y="532" width="85" height="85" transform="rotate(0,1339.5,574.5)"/><rect x="1297" y="617" width="85" height="85" transform="rotate(0,1339.5,659.5)"/><rect x="1382" y="107" width="85" height="85" transform="rotate(0,1424.5,149.5)"/><rect x="1382" y="617" width="85" height="85" transform="rotate(0,1424.5,659.5)"/><rect x="1467" y="107" width="85" height="85" transform="rotate(0,1509.5,149.5)"/><rect x="1467" y="617" width="85" height="85" transform="rotate(0,1509.5,659.5)"/><rect x="1552" y="107" width="85" height="85" transform="rotate(0,1594.5,149.5)"/><rect x="1552" y="617" width="85" height="85" transform="rotate(0,1594.5,659.5)"/><rect x="1637" y="107" width="85" height="85" transform="rotate(0,1679.5,149.5)"/><rect x="1637" y="617" width="85" height="85" transform="rotate(0,1679.5,659.5)"/><rect x="1722" y="107" width="85" height="85" transform="rotate(0,1764.5,149.5)"/><rect x="1722" y="617" width="85" height="85" transform="rotate(0,1764.5,659.5)"/><rect x="1807" y="107" width="85" height="85" transform="rotate(0,1849.5,149.5)"/><rect x="1807" y="192" width="85" height="85" transform="rotate(0,1849.5,234.5)"/><rect x="1807" y="277" width="85" height="85" transform="rotate(0,1849.5,319.5)"/><rect x="1807" y="362" width="85" height="85" transform="rotate(0,1849.5,404.5)"/><rect x="1807" y="447" width="85" height="85" transform="rotate(0,1849.5,489.5)"/><rect x="1807" y="532" width="85" height="85" transform="rotate(0,1849.5,574.5)"/><rect x="1807" y="617" width="85" height="85" transform="rotate(0,1849.5,659.5)"/></clipPath><clipPath id="clip-path-corners-dot-color-1-0"><rect x="1467" y="277" width="85" height="85" transform="rotate(0,1509.5,319.5)"/><rect x="1467" y="362" width="85" height="85" transform="rotate(0,1509.5,404.5)"/><rect x="1467" y="447" width="85" height="85" transform="rotate(0,1509.5,489.5)"/><rect x="1552" y="277" width="85" height="85" transform="rotate(0,1594.5,319.5)"/><rect x="1552" y="362" width="85" height="85" transform="rotate(0,1594.5,404.5)"/><rect x="1552" y="447" width="85" height="85" transform="rotate(0,1594.5,489.5)"/><rect x="1637" y="277" width="85" height="85" transform="rotate(0,1679.5,319.5)"/><rect x="1637" y="362" width="85" height="85" transform="rotate(0,1679.5,404.5)"/><rect x="1637" y="447" width="85" height="85" transform="rotate(0,1679.5,489.5)"/></clipPath><clipPath id="clip-path-corners-square-color-0-1"><rect x="107" y="1297" width="85" height="85" transform="rotate(0,149.5,1339.5)"/><rect x="107" y="1382" width="85" height="85" transform="rotate(0,149.5,1424.5)"/><rect x="107" y="1467" width="85" height="85" transform="rotate(0,149.5,1509.5)"/><rect x="107" y="1552" width="85" height="85" transform="rotate(0,149.5,1594.5)"/><rect x="107" y="1637" width="85" height="85" transform="rotate(0,149.5,1679.5)"/><rect x="107" y="1722" width="85" height="85" transform="rotate(0,149.5,1764.5)"/><rect x="107" y="1807" width="85" height="85" transform="rotate(0,149.5,1849.5)"/><rect x="192" y="1297" width="85" height="85" transform="rotate(0,234.5,1339.5)"/><rect x="192" y="1807" width="85" height="85" transform="rotate(0,234.5,1849.5)"/><rect x="277" y="1297" width="85" height="85" transform="rotate(0,319.5,1339.5)"/><rect x="277" y="1807" width="85" height="85" transform="rotate(0,319.5,1849.5)"/><rect x="362" y="1297" width="85" height="85" transform="rotate(0,404.5,1339.5)"/><rect x="362" y="1807" width="85" height="85" transform="rotate(0,404.5,1849.5)"/><rect x="447" y="1297" width="85" height="85" transform="rotate(0,489.5,1339.5)"/><rect x="447" y="1807" width="85" height="85" transform="rotate(0,489.5,1849.5)"/><rect x="532" y="1297" width="85" height="85" transform="rotate(0,574.5,1339.5)"/><rect x="532" y="1807" width="85" height="85" transform="rotate(0,574.5,1849.5)"/><rect x="617" y="1297" width="85" height="85" transform="rotate(0,659.5,1339.5)"/><rect x="617" y="1382" width="85" height="85" transform="rotate(0,659.5,1424.5)"/><rect x="617" y="1467" width="85" height="85" transform="rotate(0,659.5,1509.5)"/><rect x="617" y="1552" width="85" height="85" transform="rotate(0,659.5,1594.5)"/><rect x="617" y="1637" width="85" height="85" transform="rotate(0,659.5,1679.5)"/><rect x="617" y="1722" width="85" height="85" transform="rotate(0,659.5,1764.5)"/><rect x="617" y="1807" width="85" height="85" transform="rotate(0,659.5,1849.5)"/></clipPath><clipPath id="clip-path-corners-dot-color-0-1"><rect x="277" y="1467" width="85" height="85" transform="rotate(0,319.5,1509.5)"/><rect x="277" y="1552" width="85" height="85" transform="rotate(0,319.5,1594.5)"/><rect x="277" y="1637" width="85" height="85" transform="rotate(0,319.5,1679.5)"/><rect x="362" y="1467" width="85" height="85" transform="rotate(0,404.5,1509.5)"/><rect x="362" y="1552" width="85" height="85" transform="rotate(0,404.5,1594.5)"/><rect x="362" y="1637" width="85" height="85" transform="rotate(0,404.5,1679.5)"/><rect x="447" y="1467" width="85" height="85" transform="rotate(0,489.5,1509.5)"/><rect x="447" y="1552" width="85" height="85" transform="rotate(0,489.5,1594.5)"/><rect x="447" y="1637" width="85" height="85" transform="rotate(0,489.5,1679.5)"/></clipPath></defs><rect x="0" y="0" height="2000" width="2000" clip-path="url('#clip-path-background-color')" fill="#ffffff"/><rect x="107" y="107" height="1785" width="1785" clip-path="url('#clip-path-dot-color')" fill="#000000"/><rect x="107" y="107" height="595" width="595" clip-path="url('#clip-path-corners-square-color-0-0')" fill="#000000"/><rect x="277" y="277" height="255" width="255" clip-path="url('#clip-path-corners-dot-color-0-0')" fill="#000000"/><rect x="1297" y="107" height="595" width="595" clip-path="url('#clip-path-corners-square-color-1-0')" fill="#000000"/><rect x="1467" y="277" height="255" width="255" clip-path="url('#clip-path-corners-dot-color-1-0')" fill="#000000"/><rect x="107" y="1297" height="595" width="595" clip-path="url('#clip-path-corners-square-color-0-1')" fill="#000000"/><rect x="277" y="1467" height="255" width="255" clip-path="url('#clip-path-corners-dot-color-0-1')" fill="#000000"/></svg>